<svg width="60" height="110" viewBox="0 0 60 110" fill="none" xmlns="http://www.w3.org/2000/svg">
<path d="M48.2927 0H10.7317C4.82927 0 0 4.82927 0 10.7317V99.2683C0 105.171 4.82927 110 10.7317 110H48.2927C54.1951 110 59.0244 105.171 59.0244 99.2683V10.7317C59.0244 4.82927 54.1951 0 48.2927 0ZM56.3415 99.2683C56.3415 103.695 52.7195 107.317 48.2927 107.317H10.7317C6.30488 107.317 2.68293 103.695 2.68293 99.2683V10.7317C2.68293 6.30488 6.30488 2.68293 10.7317 2.68293H13.4146C14.0854 2.68293 14.7561 3.21951 14.7561 4.02439V5.36585C14.7561 6.84146 15.9634 8.04878 17.439 8.04878H41.5854C43.061 8.04878 44.2683 6.84146 44.2683 5.36585V4.02439C44.2683 3.21951 44.939 2.68293 45.6098 2.68293H48.2927C52.7195 2.68293 56.3415 6.30488 56.3415 10.7317V99.2683Z" fill="#0094FF"/>
<path d="M10.7324 65.1829V58.4756C10.7324 57.6707 11.269 57.1341 12.0739 57.1341C12.8788 57.1341 13.4153 57.6707 13.4153 58.4756V62.7682L16.769 60.756C17.4397 60.3536 18.2446 60.6219 18.6471 61.1585C19.0495 61.8292 18.7812 62.6341 18.2446 63.0365L14.6227 65.1829L18.1105 67.3292C18.7812 67.7317 18.9153 68.5365 18.5129 69.2073C18.2446 69.6097 17.8422 69.878 17.3056 69.878C17.0373 69.878 16.769 69.878 16.6349 69.7439L11.269 66.3902C11.1349 66.3902 11.1349 66.256 11.0007 66.256C10.8666 66.1219 10.8666 65.9878 10.7324 65.8536V65.7195C10.7324 65.4512 10.7324 65.317 10.7324 65.1829Z" fill="#0094FF"/>
<path d="M48.2934 65.1829V58.4756C48.2934 57.6707 47.7568 57.1341 46.9519 57.1341C46.147 57.1341 45.6104 57.6707 45.6104 58.4756V62.7682L42.2568 60.756C41.586 60.3536 40.7812 60.6219 40.3787 61.1585C39.9763 61.8292 40.2446 62.6341 40.7812 63.0365L44.269 65.1829L40.7812 67.3292C40.1104 67.7317 39.9763 68.5365 40.3787 69.2073C40.647 69.6097 41.0494 69.878 41.586 69.878C41.8543 69.878 42.1226 69.878 42.2568 69.7439L47.6226 66.3902C47.7568 66.3902 47.7568 66.256 47.8909 66.256C48.0251 66.1219 48.0251 65.9878 48.1592 65.8536V65.7195C48.2934 65.4512 48.2934 65.317 48.2934 65.1829Z" fill="#0094FF"/>
<path d="M48.1592 43.317C48.1592 43.1829 48.1592 43.1829 48.1592 43.317C48.0251 43.0487 48.0251 42.9146 47.8909 42.7804C47.8909 42.7804 47.7568 42.6463 47.6226 42.6463L42.2568 39.2926C41.586 38.8902 40.7812 39.1585 40.3787 39.6951C39.9763 40.3658 40.2446 41.1707 40.7812 41.5731L44.269 43.7195L40.7812 45.8658C40.1104 46.2682 39.9763 47.0731 40.3787 47.7439C40.647 48.1463 41.0494 48.4146 41.586 48.4146C41.8543 48.4146 42.1226 48.4146 42.2568 48.2804L45.6104 46.2683V50.4268C45.6104 51.2317 46.147 51.7683 46.9519 51.7683C47.7568 51.7683 48.2934 51.2317 48.2934 50.4268V43.7195C48.2934 43.5853 48.2934 43.4512 48.1592 43.317Z" fill="#0094FF"/>
<path d="M10.8666 43.317C10.8666 43.1829 10.8666 43.1829 10.8666 43.317C11.0007 43.0487 11.0007 42.9146 11.1349 42.7804C11.1349 42.7804 11.269 42.6463 11.4032 42.6463L16.769 39.2926C17.4397 38.8902 18.2446 39.1585 18.6471 39.6951C19.0495 40.3658 18.7812 41.1707 18.2446 41.5731L14.6227 43.7195L18.1105 45.8658C18.7812 46.2682 18.9153 47.0731 18.5129 47.7439C18.2446 48.1463 17.8422 48.4146 17.3056 48.4146C17.0373 48.4146 16.769 48.4146 16.6349 48.2804L13.4153 46.1341V50.4268C13.4153 51.2317 12.8788 51.7683 12.0739 51.7683C11.269 51.7683 10.7324 51.2317 10.7324 50.4268V43.7195C10.7324 43.5853 10.7324 43.4512 10.8666 43.317Z" fill="#0094FF"/>
<path d="M36.0843 71.8902C35.6818 71.2195 34.8769 71.0854 34.2062 71.4878L30.8525 73.5V69.2073C30.8525 68.4024 30.316 67.8658 29.5111 67.8658C28.7062 67.8658 28.1696 68.4024 28.1696 69.2073V73.5L24.816 71.4878C24.1452 71.0854 23.3403 71.3536 22.9379 71.8902C22.5355 72.561 22.8038 73.3658 23.3403 73.7683L28.7062 77.1219C28.9745 77.2561 29.2428 77.2561 29.5111 77.2561C29.7794 77.2561 30.0477 77.2561 30.1818 77.1219L35.5477 73.7683C36.2184 73.3658 36.3525 72.561 36.0843 71.8902Z" fill="#0094FF"/>
<path d="M35.5496 35.1341L30.1838 31.7804C29.7813 31.5122 29.2448 31.5122 28.8423 31.7804L23.4765 35.1341C22.8057 35.5365 22.6716 36.3414 23.074 37.0122C23.4765 37.6829 24.2813 37.817 24.9521 37.4146L28.3057 35.4024V41.0365C28.3057 41.8414 28.8423 42.378 29.6472 42.378C30.4521 42.378 30.9887 41.8414 30.9887 41.0365V35.4024L34.3423 37.4146C34.6106 37.5487 34.7448 37.5487 35.013 37.5487C35.4155 37.5487 35.9521 37.2804 36.2204 36.878C36.3545 36.3414 36.2204 35.5365 35.5496 35.1341Z" fill="#0094FF"/>
<path d="M36.0843 50.4268C35.6818 49.7561 34.8769 49.6219 34.2062 50.0243L29.5111 52.8414L24.816 50.0243C24.1452 49.6219 23.3403 49.8902 22.9379 50.4268C22.5355 51.0975 22.8038 51.9024 23.3403 52.3048L28.0355 55.2561V60.4878C28.0355 61.2926 28.5721 61.8292 29.3769 61.8292C30.1818 61.8292 30.7184 61.2926 30.7184 60.4878V55.2561L35.4135 52.3048C36.2184 51.9024 36.3525 51.0975 36.0843 50.4268Z" fill="#0094FF"/>
</svg>
