<svg width="60" height="110" viewBox="0 0 60 110" fill="none" xmlns="http://www.w3.org/2000/svg">
<path d="M48.2927 0H10.7317C4.82927 0 0 4.82927 0 10.7317V99.2683C0 105.171 4.82927 110 10.7317 110H48.2927C54.1951 110 59.0244 105.171 59.0244 99.2683V10.7317C59.0244 4.82927 54.1951 0 48.2927 0ZM56.3415 99.2683C56.3415 103.695 52.7195 107.317 48.2927 107.317H10.7317C6.30488 107.317 2.68293 103.695 2.68293 99.2683V10.7317C2.68293 6.30488 6.30488 2.68293 10.7317 2.68293H13.4146C14.0854 2.68293 14.7561 3.21951 14.7561 4.02439V5.36585C14.7561 6.84146 15.9634 8.04878 17.439 8.04878H41.5854C43.061 8.04878 44.2683 6.84146 44.2683 5.36585V4.02439C44.2683 3.21951 44.939 2.68293 45.6098 2.68293H48.2927C52.7195 2.68293 56.3415 6.30488 56.3415 10.7317V99.2683Z" fill="#0094FF"/>
<path d="M27.2027 43.49C27.5131 43.5752 27.8338 43.6346 28.1704 43.6346C30.2146 43.6346 31.878 41.9712 31.878 39.927C31.878 37.8829 30.2146 36.2195 28.1704 36.2195C26.1263 36.2195 24.4629 37.8829 24.4629 39.927C24.4629 40.1043 24.4909 40.274 24.5155 40.4449L13.0361 46.1852C12.3644 45.513 11.4372 45.0968 10.4146 45.0968C8.37046 45.0968 6.70703 46.7603 6.70703 48.8044C6.70703 50.8485 8.37046 52.512 10.4146 52.512C10.7519 52.512 11.0725 52.4519 11.3829 52.3673L14.9264 57.6829L11.3835 62.9979C11.0725 62.9121 10.7519 62.8527 10.4146 62.8527C8.37046 62.8527 6.70703 64.5161 6.70703 66.5603C6.70703 68.6044 8.37046 70.2678 10.4146 70.2678C11.4367 70.2678 12.3638 69.8517 13.0349 69.1806L24.5155 74.9209C24.4909 75.0912 24.4629 75.2615 24.4629 75.4387C24.4629 77.4829 26.1263 79.1463 28.1704 79.1463C30.2146 79.1463 31.878 77.4829 31.878 75.4387C31.878 73.3946 30.2146 71.7312 28.1704 71.7312C27.8332 71.7312 27.5131 71.7906 27.2021 71.8752L21.0023 62.576L25.549 60.3021C26.2206 60.9743 27.1478 61.3905 28.1704 61.3905C30.2146 61.3905 31.878 59.727 31.878 57.6829C31.878 55.6388 30.2146 53.9753 28.1704 53.9753C27.1484 53.9753 26.2212 54.3915 25.5501 55.0631L21.0028 52.7892L27.2027 43.49ZM28.1704 38.5609C28.9238 38.5609 29.5366 39.1736 29.5366 39.927C29.5366 40.6805 28.9238 41.2932 28.1704 41.2932C27.417 41.2932 26.8043 40.6805 26.8043 39.927C26.8043 39.1736 27.417 38.5609 28.1704 38.5609ZM24.7527 42.9447L18.8924 51.734L14.0696 49.3223C14.0942 49.1514 14.1222 48.9816 14.1222 48.8044C14.1222 48.6272 14.0942 48.4574 14.0696 48.2865L24.7527 42.9447ZM9.04841 48.8044C9.04841 48.051 9.66119 47.4382 10.4146 47.4382C11.168 47.4382 11.7808 48.051 11.7808 48.8044C11.7808 49.5578 11.168 50.1706 10.4146 50.1706C9.66119 50.1706 9.04841 49.5578 9.04841 48.8044ZM13.8341 51.8226L17.5834 53.6975L16.3338 55.5725L13.8341 51.8226ZM16.3338 59.7933L17.5828 61.6671L13.8341 63.5421L16.3338 59.7933ZM10.4146 67.9264C9.66119 67.9264 9.04841 67.3137 9.04841 66.5603C9.04841 65.8068 9.66119 65.1941 10.4146 65.1941C11.168 65.1941 11.7808 65.8068 11.7808 66.5603C11.7808 67.3137 11.168 67.9264 10.4146 67.9264ZM29.5366 75.4387C29.5366 76.1922 28.9238 76.8049 28.1704 76.8049C27.417 76.8049 26.8043 76.1922 26.8043 75.4387C26.8043 74.6853 27.417 74.0726 28.1704 74.0726C28.9238 74.0726 29.5366 74.6853 29.5366 75.4387ZM24.7516 72.4206L14.0696 67.0793C14.0942 66.9078 14.1222 66.7375 14.1222 66.5603C14.1222 66.383 14.0942 66.2127 14.0696 66.0424L18.8918 63.6312L24.7516 72.4206ZM28.1704 56.3167C28.9238 56.3167 29.5366 56.9295 29.5366 57.6829C29.5366 58.4363 28.9238 59.0491 28.1704 59.0491C27.417 59.0491 26.8043 58.4363 26.8043 57.6829C26.8043 56.9295 27.417 56.3167 28.1704 56.3167ZM24.5155 57.1639C24.4909 57.3348 24.4629 57.5051 24.4629 57.6829C24.4629 57.8601 24.4909 58.0299 24.5155 58.2008L19.6932 60.6119L17.7406 57.6829L19.6938 54.7527L24.5155 57.1639ZM45.9263 62.8527C43.8822 62.8527 42.2187 64.5161 42.2187 66.5603C42.2187 68.6044 43.8822 70.2678 45.9263 70.2678C47.9704 70.2678 49.6339 68.6044 49.6339 66.5603C49.6339 64.5161 47.9704 62.8527 45.9263 62.8527ZM45.9263 67.9264C45.1729 67.9264 44.5601 67.3137 44.5601 66.5603C44.5601 65.8068 45.1729 65.1941 45.9263 65.1941C46.6797 65.1941 47.2925 65.8068 47.2925 66.5603C47.2925 67.3137 46.6797 67.9264 45.9263 67.9264ZM45.9263 52.512C47.9704 52.512 49.6339 50.8485 49.6339 48.8044C49.6339 46.7603 47.9704 45.0968 45.9263 45.0968C43.8822 45.0968 42.2187 46.7603 42.2187 48.8044C42.2187 50.8485 43.8822 52.512 45.9263 52.512ZM45.9263 47.4382C46.6797 47.4382 47.2925 48.051 47.2925 48.8044C47.2925 49.5578 46.6797 50.1706 45.9263 50.1706C45.1729 50.1706 44.5601 49.5578 44.5601 48.8044C44.5601 48.051 45.1729 47.4382 45.9263 47.4382Z" fill="#0094FF"/>
</svg>
