<svg width="60" height="110" viewBox="0 0 60 110" fill="none" xmlns="http://www.w3.org/2000/svg">
<path d="M48.2927 0H10.7317C4.82927 0 0 4.82927 0 10.7317V99.2683C0 105.171 4.82927 110 10.7317 110H48.2927C54.1951 110 59.0244 105.171 59.0244 99.2683V10.7317C59.0244 4.82927 54.1951 0 48.2927 0ZM56.3415 99.2683C56.3415 103.695 52.7195 107.317 48.2927 107.317H10.7317C6.30488 107.317 2.68293 103.695 2.68293 99.2683V10.7317C2.68293 6.30488 6.30488 2.68293 10.7317 2.68293H13.4146C14.0854 2.68293 14.7561 3.21951 14.7561 4.02439V5.36585C14.7561 6.84146 15.9634 8.04878 17.439 8.04878H41.5854C43.061 8.04878 44.2683 6.84146 44.2683 5.36585V4.02439C44.2683 3.21951 44.939 2.68293 45.6098 2.68293H48.2927C52.7195 2.68293 56.3415 6.30488 56.3415 10.7317V99.2683Z" fill="#0094FF"/>
<path d="M22.1332 44.2683L12.0723 54.3293L22.1332 64.3903" stroke="#0094FF" stroke-width="3" stroke-linecap="round" stroke-linejoin="round"/>
<path d="M37.5601 64.3903L47.6211 54.3293L37.5601 44.2683" stroke="#0094FF" stroke-width="3" stroke-linecap="round" stroke-linejoin="round"/>
<path d="M32.1951 44.2683L27.5 65.061" stroke="#0094FF" stroke-width="3" stroke-linecap="round"/>
</svg>
