<svg width="60" height="110" viewBox="0 0 60 110" fill="none" xmlns="http://www.w3.org/2000/svg">
<path d="M48.2927 0H10.7317C4.82927 0 0 4.82927 0 10.7317V99.2683C0 105.171 4.82927 110 10.7317 110H48.2927C54.1951 110 59.0244 105.171 59.0244 99.2683V10.7317C59.0244 4.82927 54.1951 0 48.2927 0ZM56.3415 99.2683C56.3415 103.695 52.7195 107.317 48.2927 107.317H10.7317C6.30488 107.317 2.68293 103.695 2.68293 99.2683V10.7317C2.68293 6.30488 6.30488 2.68293 10.7317 2.68293H13.4146C14.0854 2.68293 14.7561 3.21951 14.7561 4.02439V5.36585C14.7561 6.84146 15.9634 8.04878 17.439 8.04878H41.5854C43.061 8.04878 44.2683 6.84146 44.2683 5.36585V4.02439C44.2683 3.21951 44.939 2.68293 45.6098 2.68293H48.2927C52.7195 2.68293 56.3415 6.30488 56.3415 10.7317V99.2683Z" fill="#0094FF"/>
<g clip-path="url(#clip0)">
<path d="M44.269 63.0487H14.7568C13.6895 63.0487 12.6659 62.6248 11.9111 61.87C11.1564 61.1153 10.7324 60.0917 10.7324 59.0244V40.2439C10.7324 39.1765 11.1564 38.1529 11.9111 37.3982C12.6659 36.6435 13.6895 36.2195 14.7568 36.2195H44.269C45.3363 36.2195 46.36 36.6435 47.1147 37.3982C47.8694 38.1529 48.2934 39.1765 48.2934 40.2439V59.0244C48.2934 60.0917 47.8694 61.1153 47.1147 61.87C46.36 62.6248 45.3363 63.0487 44.269 63.0487ZM14.7568 38.9024C14.401 38.9024 14.0598 39.0437 13.8083 39.2953C13.5567 39.5469 13.4153 39.8881 13.4153 40.2439V59.0244C13.4153 59.3801 13.5567 59.7213 13.8083 59.9729C14.0598 60.2245 14.401 60.3658 14.7568 60.3658H44.269C44.6248 60.3658 44.966 60.2245 45.2176 59.9729C45.4691 59.7213 45.6105 59.3801 45.6105 59.0244V40.2439C45.6105 39.8881 45.4691 39.5469 45.2176 39.2953C44.966 39.0437 44.6248 38.9024 44.269 38.9024H14.7568Z" fill="#0094FF"/>
<path d="M46.9523 44.2682H12.0742V46.9512H46.9523V44.2682Z" fill="#0094FF"/>
<path d="M41.5859 53.6585H33.5371V56.3414H41.5859V53.6585Z" fill="#0094FF"/>
</g>
<defs>
<clipPath id="clip0">
<rect width="42.9268" height="53.6585" fill="white" transform="translate(8.04883 28.1707)"/>
</clipPath>
</defs>
</svg>
