<svg width="101" height="24" viewBox="0 0 101 24" fill="none" xmlns="http://www.w3.org/2000/svg">
<circle cx="4.87679" cy="4.87679" r="4.87679" fill="#0094FF"/>
<circle cx="4.87679" cy="17.0688" r="4.87679" fill="#0094FF"/>
<circle cx="17.0682" cy="4.87679" r="4.87679" fill="#0094FF"/>
<circle cx="17.0682" cy="17.0688" r="4.87679" fill="#0094FF"/>
<path d="M50.6805 12.76V16.312H49.0005V19H45.1125V16.312H37.4805V12.76L42.8325 2.20001H46.9605L41.6085 12.76H45.1125V9.16001H49.0005V12.76H50.6805Z" fill="#0094FF"/>
<path d="M62.447 2.20001V5.89601H58.127V19H54.287V5.89601H49.967V2.20001H62.447Z" fill="#0094FF"/>
<path d="M70.5637 7.00001H74.1637V19H70.5637V17.872C69.7157 18.848 68.5237 19.336 66.9877 19.336C65.4037 19.336 64.0517 18.728 62.9317 17.512C61.8117 16.28 61.2517 14.776 61.2517 13C61.2517 11.224 61.8117 9.72801 62.9317 8.51201C64.0517 7.28001 65.4037 6.66401 66.9877 6.66401C68.5237 6.66401 69.7157 7.15201 70.5637 8.12801V7.00001ZM65.6437 15.136C66.1717 15.664 66.8597 15.928 67.7077 15.928C68.5557 15.928 69.2437 15.664 69.7717 15.136C70.2997 14.608 70.5637 13.896 70.5637 13C70.5637 12.104 70.2997 11.392 69.7717 10.864C69.2437 10.336 68.5557 10.072 67.7077 10.072C66.8597 10.072 66.1717 10.336 65.6437 10.864C65.1157 11.392 64.8517 12.104 64.8517 13C64.8517 13.896 65.1157 14.608 65.6437 15.136Z" fill="#0094FF"/>
<path d="M83.9808 6.66401C85.5648 6.66401 86.9168 7.28001 88.0368 8.51201C89.1568 9.72801 89.7168 11.224 89.7168 13C89.7168 14.776 89.1568 16.28 88.0368 17.512C86.9168 18.728 85.5648 19.336 83.9808 19.336C82.4448 19.336 81.2528 18.848 80.4048 17.872V23.8H76.8048V7.00001H80.4048V8.12801C81.2528 7.15201 82.4448 6.66401 83.9808 6.66401ZM81.1968 15.136C81.7408 15.664 82.4288 15.928 83.2608 15.928C84.0928 15.928 84.7728 15.664 85.3008 15.136C85.8448 14.608 86.1168 13.896 86.1168 13C86.1168 12.104 85.8448 11.392 85.3008 10.864C84.7728 10.336 84.0928 10.072 83.2608 10.072C82.4288 10.072 81.7408 10.336 81.1968 10.864C80.6688 11.392 80.4048 12.104 80.4048 13C80.4048 13.896 80.6688 14.608 81.1968 15.136Z" fill="#0094FF"/>
<path d="M94.9316 10.504C94.9316 10.744 95.1316 10.944 95.5316 11.104C95.9476 11.248 96.4436 11.4 97.0196 11.56C97.5956 11.704 98.1716 11.896 98.7476 12.136C99.3236 12.376 99.8116 12.776 100.212 13.336C100.628 13.88 100.836 14.568 100.836 15.4C100.836 16.696 100.356 17.68 99.3956 18.352C98.4356 19.008 97.2516 19.336 95.8436 19.336C93.3156 19.336 91.5956 18.384 90.6836 16.48L93.8036 14.704C94.1236 15.648 94.8036 16.12 95.8436 16.12C96.7076 16.12 97.1396 15.872 97.1396 15.376C97.1396 15.136 96.9316 14.936 96.5156 14.776C96.1156 14.616 95.6276 14.464 95.0516 14.32C94.4756 14.16 93.8996 13.96 93.3236 13.72C92.7476 13.464 92.2516 13.072 91.8356 12.544C91.4356 12.016 91.2356 11.368 91.2356 10.6C91.2356 9.35201 91.6836 8.38401 92.5796 7.69601C93.4916 7.00801 94.6116 6.66401 95.9396 6.66401C96.9316 6.66401 97.8356 6.88801 98.6516 7.33601C99.4676 7.76801 100.124 8.40001 100.62 9.23201L97.5476 10.888C97.1636 10.184 96.6276 9.83201 95.9396 9.83201C95.2676 9.83201 94.9316 10.056 94.9316 10.504Z" fill="#0094FF"/>
</svg>
